<svg width="18" height="28" viewBox="0 0 18 28" fill="none" xmlns="http://www.w3.org/2000/svg">
<path d="M10 27.5C9.3125 27.5 8.72396 27.2552 8.23438 26.7656C7.74479 26.276 7.5 25.6875 7.5 25V22.4062C5.35417 22.1146 3.56771 21.151 2.14062 19.5156C0.713542 17.8802 0 15.9583 0 13.75V2.5C0 1.8125 0.244792 1.22396 0.734375 0.734375C1.22396 0.244792 1.8125 0 2.5 0H15C15.6875 0 16.276 0.244792 16.7656 0.734375C17.2552 1.22396 17.5 1.8125 17.5 2.5V13.75C17.5 15.9583 16.7865 17.8802 15.3594 19.5156C13.9323 21.151 12.1458 22.1146 10 22.4062V25H17.5V27.5H10ZM10.9375 15H14.875C14.9167 14.7917 14.9479 14.5885 14.9688 14.3906C14.9896 14.1927 15 13.9792 15 13.75V12.5H10V10H15V7.5H8.75V5H15V2.5H2.5V12.5H5.9375C6.625 12.5 7.27604 12.6562 7.89062 12.9688C8.50521 13.2812 9.02083 13.7083 9.4375 14.25C9.60417 14.4792 9.82292 14.6615 10.0938 14.7969C10.3646 14.9323 10.6458 15 10.9375 15ZM8.75 20C9.77083 20 10.7188 19.776 11.5938 19.3281C12.4688 18.8802 13.1875 18.2708 13.75 17.5H10.9375C10.25 17.5 9.59896 17.3438 8.98438 17.0312C8.36979 16.7188 7.85417 16.2917 7.4375 15.75C7.27083 15.5208 7.05208 15.3385 6.78125 15.2031C6.51042 15.0677 6.22917 15 5.9375 15H2.625C2.91667 16.4375 3.63021 17.6302 4.76562 18.5781C5.90104 19.526 7.22917 20 8.75 20Z" fill="#FF9F4A"/>
</svg>
